<svg width="16" height="17" viewBox="0 0 16 17" fill="none" xmlns="http://www.w3.org/2000/svg">
<path d="M12.3327 8.93359V11.4003C12.3327 13.4803 10.3927 15.1669 7.99935 15.1669C5.60602 15.1669 3.66602 13.4803 3.66602 11.4003V8.93359C3.66602 11.0136 5.60602 12.5003 7.99935 12.5003C10.3927 12.5003 12.3327 11.0136 12.3327 8.93359Z" stroke="#F9F1E2" stroke-opacity="0.7" stroke-linecap="round" stroke-linejoin="round"/>
<path d="M12.3327 5.5987C12.3327 6.20537 12.166 6.76536 11.8727 7.24536C11.1593 8.4187 9.69268 9.16536 7.99935 9.16536C6.30602 9.16536 4.83935 8.4187 4.12602 7.24536C3.83268 6.76536 3.66602 6.20537 3.66602 5.5987C3.66602 4.5587 4.15268 3.6187 4.93268 2.9387C5.71934 2.25203 6.79935 1.83203 7.99935 1.83203C9.19935 1.83203 10.2794 2.25203 11.066 2.93203C11.846 3.6187 12.3327 4.5587 12.3327 5.5987Z" stroke="#F9F1E2" stroke-opacity="0.7" stroke-linecap="round" stroke-linejoin="round"/>
<path d="M12.3327 5.5987V8.93203C12.3327 11.012 10.3927 12.4987 7.99935 12.4987C5.60602 12.4987 3.66602 11.012 3.66602 8.93203V5.5987C3.66602 3.5187 5.60602 1.83203 7.99935 1.83203C9.19935 1.83203 10.2794 2.25203 11.066 2.93203C11.846 3.6187 12.3327 4.5587 12.3327 5.5987Z" stroke="#F9F1E2" stroke-opacity="0.7" stroke-linecap="round" stroke-linejoin="round"/>
</svg>
