<svg width="302" height="302" viewBox="0 0 302 302" fill="none" xmlns="http://www.w3.org/2000/svg">
<path d="M177.533 52.8201L191.526 65.1121C192.62 66.0727 193.939 66.7409 195.361 67.0547L213.569 71.0664C216.394 71.6887 218.717 73.6831 219.751 76.3745L226.419 93.7242C226.94 95.0792 227.798 96.2816 228.912 97.2172L243.18 109.193C245.393 111.051 246.521 113.891 246.182 116.75L243.997 135.182C243.826 136.622 244.026 138.082 244.577 139.425L251.636 156.622C252.73 159.29 252.405 162.324 250.771 164.696L240.232 179.989C239.409 181.184 238.905 182.567 238.767 184.01L236.999 202.487C236.724 205.354 235.021 207.888 232.465 209.229L215.989 217.878C214.702 218.554 213.609 219.545 212.812 220.758L202.624 236.283C201.044 238.691 198.351 240.144 195.459 240.148L176.819 240.173C175.363 240.174 173.932 240.545 172.66 241.249L156.384 250.266C153.86 251.665 150.796 251.703 148.231 250.368L131.697 241.763C130.406 241.09 128.964 240.757 127.509 240.791L108.874 241.233C105.984 241.302 103.25 239.918 101.599 237.55L90.9595 222.285C90.1285 221.093 89.0067 220.13 87.7002 219.487L70.9771 211.254C68.3828 209.977 66.6051 207.487 66.2475 204.629L63.9388 186.203C63.7584 184.764 63.214 183.391 62.3564 182.218L51.3747 167.196C49.6711 164.865 49.2575 161.84 50.2737 159.146L56.8258 141.779C57.3376 140.423 57.4945 138.958 57.2815 137.522L54.5576 119.152C54.1349 116.302 55.1799 113.435 57.3376 111.523L71.2487 99.1934C72.3353 98.2301 73.1583 97.008 73.6391 95.6396L79.7968 78.1293C80.7516 75.4128 83.0155 73.3608 85.8211 72.668L103.905 68.2005C105.317 67.852 106.617 67.1507 107.682 66.1634L121.31 53.5251C123.424 51.5644 126.388 50.7969 129.198 51.4822L147.312 55.9011C148.727 56.2459 150.206 56.2283 151.611 55.8477L169.587 50.9757C172.376 50.22 175.362 50.9133 177.533 52.8201Z" fill="#04DF76"/>
<path d="M105.702 151.358L135.663 181.319C135.663 181.319 175.981 141.001 190.864 126.117" stroke="white" stroke-width="11.2074" stroke-miterlimit="10"/>
<mask id="mask0_2145_5629" style="mask-type:luminance" maskUnits="userSpaceOnUse" x="0" y="0" width="302" height="302">
<path d="M0.5 0.5H301.5V301.5H0.5V0.5Z" fill="white"/>
</mask>
<g mask="url(#mask0_2145_5629)">
<path d="M146.735 9.74357C146.735 8.19794 146.735 7.25781 146.735 7.25781" stroke="#04DF76" stroke-width="6.02" stroke-miterlimit="10"/>
<path d="M146.986 286.955C146.986 286.955 146.986 286.014 146.986 284.469" stroke="#04DF76" stroke-width="6.02" stroke-miterlimit="10"/>
<path d="M284.215 146.98C285.76 146.98 286.701 146.98 286.701 146.98" stroke="#04DF76" stroke-width="6.02" stroke-miterlimit="10"/>
<path d="M7.02148 147.23C7.02148 147.23 7.96161 147.23 9.50724 147.23" stroke="#04DF76" stroke-width="6.02" stroke-miterlimit="10"/>
<path d="M244.074 244.133C245.167 245.226 245.832 245.891 245.832 245.891" stroke="#04DF76" stroke-width="6.02" stroke-miterlimit="10"/>
<path d="M47.8916 48.3164C47.8916 48.3164 48.5563 48.9811 49.6489 50.0742" stroke="#04DF76" stroke-width="6.02" stroke-miterlimit="10"/>
<path d="M243.896 49.8941C244.99 48.8014 245.654 48.1367 245.654 48.1367" stroke="#04DF76" stroke-width="6.02" stroke-miterlimit="10"/>
<path d="M48.0684 246.07C48.0684 246.07 48.7331 245.406 49.8257 244.312" stroke="#04DF76" stroke-width="6.02" stroke-miterlimit="10"/>
</g>
</svg>
