<svg width="20" height="20" viewBox="0 0 20 20" fill="none" xmlns="http://www.w3.org/2000/svg">
<path d="M14.1667 17.0846H5.83335C3.33335 17.0846 1.66669 15.8346 1.66669 12.918V7.08464C1.66669 4.16797 3.33335 2.91797 5.83335 2.91797H14.1667C16.6667 2.91797 18.3334 4.16797 18.3334 7.08464V12.918C18.3334 15.8346 16.6667 17.0846 14.1667 17.0846Z" stroke="#FFCC6D" stroke-opacity="0.35" stroke-width="2" stroke-miterlimit="10" stroke-linecap="round" stroke-linejoin="round"/>
<path d="M10 12.5C11.3807 12.5 12.5 11.3807 12.5 10C12.5 8.61929 11.3807 7.5 10 7.5C8.61929 7.5 7.5 8.61929 7.5 10C7.5 11.3807 8.61929 12.5 10 12.5Z" stroke="#FFCC6D" stroke-opacity="0.35" stroke-width="2" stroke-miterlimit="10" stroke-linecap="round" stroke-linejoin="round"/>
<path d="M1.66669 7.4987H2.50002C5.00002 7.4987 5.83335 6.66536 5.83335 4.16536V3.33203" stroke="#FFCC6D" stroke-opacity="0.35" stroke-width="2" stroke-miterlimit="10" stroke-linecap="round" stroke-linejoin="round"/>
<path d="M18.3334 7.4987H17.5C15 7.4987 14.1667 6.66536 14.1667 4.16536V3.33203" stroke="#FFCC6D" stroke-opacity="0.35" stroke-width="2" stroke-miterlimit="10" stroke-linecap="round" stroke-linejoin="round"/>
<path d="M1.66669 12.5H2.50002C5.00002 12.5 5.83335 13.3333 5.83335 15.8333V16.6667" stroke="#FFCC6D" stroke-opacity="0.35" stroke-width="2" stroke-miterlimit="10" stroke-linecap="round" stroke-linejoin="round"/>
<path d="M18.3334 12.5H17.5C15 12.5 14.1667 13.3333 14.1667 15.8333V16.6667" stroke="#FFCC6D" stroke-opacity="0.35" stroke-width="2" stroke-miterlimit="10" stroke-linecap="round" stroke-linejoin="round"/>
</svg>
