<svg width="120" height="121" viewBox="0 0 120 121" fill="none" xmlns="http://www.w3.org/2000/svg">
<g opacity="0.5">
<path opacity="0.4" d="M102.5 51.45H88.05C76.2 51.45 66.55 41.8 66.55 29.95V15.5C66.55 12.75 64.3 10.5 61.55 10.5H40.35C24.95 10.5 12.5 20.5 12.5 38.35V82.65C12.5 100.5 24.95 110.5 40.35 110.5H79.65C95.05 110.5 107.5 100.5 107.5 82.65V56.45C107.5 53.7 105.25 51.45 102.5 51.45Z" fill="#F2E8CF"/>
<path d="M78.9984 11.5485C76.9484 9.4985 73.3984 10.8985 73.3984 13.7485V31.1985C73.3984 38.4985 79.5984 44.5485 87.1484 44.5485C91.8984 44.5985 98.4984 44.5985 104.148 44.5985C106.998 44.5985 108.498 41.2485 106.498 39.2485C99.2984 31.9985 86.3984 18.9485 78.9984 11.5485Z" fill="#F2E8CF"/>
<path d="M57.6473 62.85L47.6473 52.85C47.5973 52.8 47.5473 52.8 47.5473 52.75C47.2473 52.45 46.8473 52.2 46.4473 52C46.3973 52 46.3973 52 46.3473 52C45.9473 51.85 45.5473 51.8 45.1473 51.75C44.9973 51.75 44.8973 51.75 44.7473 51.75C44.4473 51.75 44.0973 51.85 43.7973 51.95C43.6473 52 43.5473 52.05 43.4473 52.1C43.0473 52.3 42.6473 52.5 42.3473 52.85L32.3473 62.85C30.8973 64.3 30.8973 66.7 32.3473 68.15C33.7973 69.6 36.1973 69.6 37.6473 68.15L41.2473 64.55V85.5C41.2473 87.55 42.9473 89.25 44.9973 89.25C47.0473 89.25 48.7473 87.55 48.7473 85.5V64.55L52.3473 68.15C53.0973 68.9 54.0473 69.25 54.9973 69.25C55.9473 69.25 56.8973 68.9 57.6473 68.15C59.0973 66.7 59.0973 64.3 57.6473 62.85Z" fill="#F2E8CF"/>
</g>
</svg>
