<svg width="24" height="25" viewBox="0 0 24 25" fill="none" xmlns="http://www.w3.org/2000/svg">
<path d="M12 17.5C12.2833 17.5 12.521 17.404 12.713 17.212C12.905 17.02 13.0007 16.7827 13 16.5C12.9993 16.2173 12.9033 15.98 12.712 15.788C12.5207 15.596 12.2833 15.5 12 15.5C11.7167 15.5 11.4793 15.596 11.288 15.788C11.0967 15.98 11.0007 16.2173 11 16.5C10.9993 16.7827 11.0953 17.0203 11.288 17.213C11.4807 17.4057 11.718 17.5013 12 17.5ZM12 13.5C12.2833 13.5 12.521 13.404 12.713 13.212C12.905 13.02 13.0007 12.7827 13 12.5V8.5C13 8.21667 12.904 7.97933 12.712 7.788C12.52 7.59667 12.2827 7.50067 12 7.5C11.7173 7.49933 11.48 7.59533 11.288 7.788C11.096 7.98067 11 8.218 11 8.5V12.5C11 12.7833 11.096 13.021 11.288 13.213C11.48 13.405 11.7173 13.5007 12 13.5ZM9.075 21.5C8.80833 21.5 8.55433 21.45 8.313 21.35C8.07167 21.25 7.859 21.1083 7.675 20.925L3.575 16.825C3.39167 16.6417 3.25 16.429 3.15 16.187C3.05 15.945 3 15.6913 3 15.426V9.576C3 9.30933 3.05 9.05533 3.15 8.814C3.25 8.57267 3.39167 8.36 3.575 8.176L7.675 4.076C7.85833 3.89267 8.071 3.751 8.313 3.651C8.555 3.551 8.809 3.50067 9.075 3.5H14.925C15.1917 3.5 15.446 3.55 15.688 3.65C15.93 3.75 16.1423 3.89167 16.325 4.075L20.425 8.175C20.6083 8.35833 20.75 8.571 20.85 8.813C20.95 9.055 21 9.309 21 9.575V15.425C21 15.6917 20.95 15.946 20.85 16.188C20.75 16.43 20.6083 16.6423 20.425 16.825L16.325 20.925C16.1417 21.1083 15.929 21.25 15.687 21.35C15.445 21.45 15.191 21.5 14.925 21.5H9.075ZM9.1 19.5H14.9L19 15.4V9.6L14.9 5.5H9.1L5 9.6V15.4L9.1 19.5Z" fill="#FFCC6D" fill-opacity="0.65"/>
</svg>
