<svg width="32" height="32" viewBox="0 0 32 32" fill="none" xmlns="http://www.w3.org/2000/svg">
<path d="M26.5717 10.7137V8.95173H24.8097V7.18973H21.287V5.42773H10.7137V7.18973H7.19033V8.95173H5.42899V10.7137H3.66699V21.2851H5.42899V23.0471H7.19099V24.8084H10.7143V26.5704H21.287V24.8084H24.8103V23.0471H26.5723V21.2851H28.3337V10.7137H26.5717Z" stroke="#333333" stroke-linecap="round" stroke-linejoin="round"/>
<path d="M5.42969 16.0005V17.7625H7.19102V19.5245H10.715V21.2865H21.2864V19.5245H24.8097V17.7625H26.5717V16.0005M19.6917 10.6172V12.2112H17.9297V13.8059H16.1677V15.3999H19.6917V13.8059H21.4537V12.2112H23.2157V10.6172H19.6917Z" stroke="#333333" stroke-linecap="round" stroke-linejoin="round"/>
<path d="M14.5742 17.3287V13.8047H16.1682V17.3287H14.5742Z" stroke="#333333" stroke-linecap="round" stroke-linejoin="round"/>
</svg>
