<svg width="20" height="20" viewBox="0 0 20 20" fill="none" xmlns="http://www.w3.org/2000/svg">
<path d="M6.66663 1.66797V4.16797" stroke="#9A9992" stroke-width="1.5" stroke-miterlimit="10" stroke-linecap="round" stroke-linejoin="round"/>
<path d="M13.3334 1.66797V4.16797" stroke="#9A9992" stroke-width="1.5" stroke-miterlimit="10" stroke-linecap="round" stroke-linejoin="round"/>
<path d="M2.91663 7.57422H17.0833" stroke="#9A9992" stroke-width="1.5" stroke-miterlimit="10" stroke-linecap="round" stroke-linejoin="round"/>
<path d="M18.3333 15.8333C18.3333 16.4583 18.1583 17.05 17.85 17.55C17.275 18.5167 16.2166 19.1667 15 19.1667C14.1583 19.1667 13.3916 18.8583 12.8083 18.3333C12.55 18.1167 12.325 17.85 12.15 17.55C11.8416 17.05 11.6666 16.4583 11.6666 15.8333C11.6666 13.9917 13.1583 12.5 15 12.5C16 12.5 16.8916 12.9417 17.5 13.6333C18.0166 14.225 18.3333 14.9917 18.3333 15.8333Z" stroke="#9A9992" stroke-width="1.5" stroke-miterlimit="10" stroke-linecap="round" stroke-linejoin="round"/>
<path d="M13.7 15.8323L14.5249 16.6573L16.2999 15.0156" stroke="#9A9992" stroke-width="1.5" stroke-linecap="round" stroke-linejoin="round"/>
<path d="M17.5 7.08464V13.6346C16.8917 12.943 16 12.5013 15 12.5013C13.1583 12.5013 11.6667 13.993 11.6667 15.8346C11.6667 16.4596 11.8417 17.0513 12.15 17.5513C12.325 17.8513 12.55 18.118 12.8083 18.3346H6.66667C3.75 18.3346 2.5 16.668 2.5 14.168V7.08464C2.5 4.58464 3.75 2.91797 6.66667 2.91797H13.3333C16.25 2.91797 17.5 4.58464 17.5 7.08464Z" stroke="#9A9992" stroke-width="1.5" stroke-miterlimit="10" stroke-linecap="round" stroke-linejoin="round"/>
<path d="M9.9962 11.4167H10.0037" stroke="#9A9992" stroke-width="2" stroke-linecap="round" stroke-linejoin="round"/>
<path d="M6.91197 11.4167H6.91945" stroke="#9A9992" stroke-width="2" stroke-linecap="round" stroke-linejoin="round"/>
<path d="M6.91197 13.9167H6.91945" stroke="#9A9992" stroke-width="2" stroke-linecap="round" stroke-linejoin="round"/>
</svg>
