<svg width="20" height="20" viewBox="0 0 20 20" fill="none" xmlns="http://www.w3.org/2000/svg">
<path d="M15.8334 7.5013C15.8334 8.70964 15.4751 9.81798 14.8584 10.743C13.9584 12.0763 12.5334 13.018 10.8751 13.2596C10.5917 13.3096 10.3001 13.3346 10.0001 13.3346C9.70008 13.3346 9.40841 13.3096 9.12508 13.2596C7.46675 13.018 6.04175 12.0763 5.14175 10.743C4.52508 9.81798 4.16675 8.70964 4.16675 7.5013C4.16675 4.2763 6.77508 1.66797 10.0001 1.66797C13.2251 1.66797 15.8334 4.2763 15.8334 7.5013Z" stroke="#9A9992" stroke-width="1.5" stroke-linecap="round" stroke-linejoin="round"/>
<path d="M17.7085 15.3917L16.3335 15.7167C16.0251 15.7917 15.7835 16.025 15.7168 16.3333L15.4251 17.5583C15.2668 18.225 14.4168 18.425 13.9751 17.9L10.0001 13.3333L6.02515 17.9083C5.58348 18.4333 4.73348 18.2333 4.57515 17.5667L4.28348 16.3417C4.20848 16.0333 3.96681 15.7917 3.66681 15.725L2.29181 15.4C1.65848 15.25 1.43348 14.4583 1.89181 14L5.14181 10.75C6.04181 12.0833 7.46681 13.025 9.12515 13.2667C9.40848 13.3167 9.70015 13.3417 10.0001 13.3417C10.3001 13.3417 10.5918 13.3167 10.8751 13.2667C12.5335 13.025 13.9585 12.0833 14.8585 10.75L18.1085 14C18.5668 14.45 18.3418 15.2417 17.7085 15.3917Z" stroke="#9A9992" stroke-width="1.5" stroke-linecap="round" stroke-linejoin="round"/>
<path d="M10.4834 4.98203L10.9751 5.96536C11.0417 6.09869 11.2167 6.23203 11.3751 6.25703L12.2667 6.40702C12.8334 6.49869 12.9667 6.91536 12.5584 7.3237L11.8667 8.01535C11.7501 8.13202 11.6834 8.35703 11.7251 8.5237L11.9251 9.38203C12.0834 10.057 11.7251 10.3237 11.1251 9.96535L10.2917 9.47368C10.1417 9.38202 9.89172 9.38202 9.74172 9.47368L8.90839 9.96535C8.30839 10.3153 7.95006 10.057 8.10839 9.38203L8.30839 8.5237C8.34173 8.36536 8.28339 8.13202 8.16673 8.01535L7.47506 7.3237C7.06673 6.91536 7.20006 6.50702 7.76673 6.40702L8.65839 6.25703C8.80839 6.23203 8.98339 6.09869 9.05006 5.96536L9.54173 4.98203C9.78339 4.4487 10.2167 4.4487 10.4834 4.98203Z" stroke="#9A9992" stroke-width="1.5" stroke-linecap="round" stroke-linejoin="round"/>
</svg>
