<svg width="396" height="396" viewBox="0 0 396 396" fill="none" xmlns="http://www.w3.org/2000/svg">
<path d="M129.736 327.229C180.484 354.036 128.176 219.554 128.176 219.554C128.176 219.554 95.5786 78.9881 68.7714 129.736C41.9643 180.484 176.446 128.176 176.446 128.176C176.446 128.176 317.012 95.5785 266.264 68.7713C215.516 41.9642 267.824 176.446 267.824 176.446C267.824 176.446 300.422 317.012 327.229 266.264C354.036 215.516 219.554 267.824 219.554 267.824C219.554 267.824 78.9883 300.422 129.736 327.229Z" stroke="#FAB427" stroke-width="12.4379"/>
<path d="M260.121 310.904C304.458 286.509 180.046 259.882 180.046 259.882C180.046 259.882 60.7025 215.787 85.0976 260.124C109.493 304.46 136.12 180.049 136.12 180.049C136.12 180.049 180.214 60.7049 135.878 85.1001C91.5412 109.495 215.953 136.122 215.953 136.122C215.953 136.122 335.296 180.217 310.901 135.88C286.506 91.5437 259.879 215.955 259.879 215.955C259.879 215.955 215.785 335.299 260.121 310.904Z" stroke="#FFD700" stroke-width="10.9667"/>
<path d="M199.395 208.965L189.07 204.511C187.098 203.661 186.187 201.368 187.038 199.396L191.491 189.071C192.342 187.098 194.634 186.188 196.607 187.038L206.932 191.492C208.904 192.342 209.815 194.635 208.964 196.607L204.511 206.932C203.66 208.905 201.368 209.816 199.395 208.965Z" stroke="#FAB427" stroke-width="4.32481"/>
</svg>
