<svg width="404" height="405" viewBox="0 0 404 405" fill="none" xmlns="http://www.w3.org/2000/svg">
<path d="M117.417 70.7641C72.3579 100.369 180.878 126.996 180.878 126.996C180.878 126.996 256.123 44.3886 202.211 44.9332C148.299 45.4778 225.197 126.548 225.197 126.548C225.197 126.548 333.157 97.7346 287.509 69.0459C241.861 40.3571 262.722 150.132 262.722 150.132C262.722 150.132 369.122 184.26 346.231 135.447C323.339 86.6328 281.539 190.259 281.539 190.259C281.539 190.259 352.598 276.494 359.731 223.053C366.864 169.613 275.675 234.19 275.675 234.19C275.675 234.19 288.831 345.153 323.725 304.052C358.618 262.952 246.991 267.977 246.991 267.977C246.991 267.977 198.068 368.437 249.643 352.726C301.217 337.015 204.594 280.892 204.594 280.892C204.594 280.892 109.125 338.955 161.006 353.621C212.888 368.287 161.945 268.836 161.945 268.836C161.945 268.836 50.2401 266.067 85.9565 306.454C121.673 346.841 132.585 235.636 132.585 235.636C132.585 235.636 40.1095 172.914 48.3211 226.199C56.5326 279.485 125.834 191.832 125.834 191.832C125.834 191.832 81.9495 89.0713 60.0491 138.337C38.1487 187.604 143.838 151.333 143.838 151.333C143.838 151.333 162.476 41.159 117.417 70.7641Z" fill="#FFD700"/>
<path d="M117.417 70.7641C72.3579 100.369 180.878 126.996 180.878 126.996C180.878 126.996 256.123 44.3886 202.211 44.9332C148.299 45.4778 225.197 126.548 225.197 126.548C225.197 126.548 333.157 97.7347 287.509 69.0459C241.861 40.3571 262.722 150.132 262.722 150.132C262.722 150.132 369.122 184.26 346.231 135.447C323.339 86.6328 281.539 190.259 281.539 190.259C281.539 190.259 352.598 276.494 359.731 223.053C366.864 169.613 275.675 234.19 275.675 234.19C275.675 234.19 288.831 345.153 323.725 304.052C358.618 262.952 246.991 267.977 246.991 267.977C246.991 267.977 198.068 368.437 249.643 352.726C301.217 337.015 204.594 280.892 204.594 280.892C204.594 280.892 109.125 338.955 161.006 353.621C212.888 368.287 161.945 268.836 161.945 268.836C161.945 268.836 50.2401 266.067 85.9565 306.454C121.673 346.841 132.585 235.636 132.585 235.636C132.585 235.636 40.1095 172.914 48.3211 226.199C56.5326 279.485 125.834 191.832 125.834 191.832C125.834 191.832 81.9495 89.0713 60.0491 138.337C38.1487 187.604 143.838 151.333 143.838 151.333C143.838 151.333 162.476 41.159 117.417 70.7641Z" stroke="#333333" stroke-width="1.31255"/>
<path d="M50.4157 164.074C37.7344 216.476 135.175 161.786 135.175 161.786C135.175 161.786 133.692 50.0564 94.6929 87.2838C55.6941 124.511 167.234 131.183 167.234 131.183C167.234 131.183 226.392 36.3884 173.457 46.6216C120.523 56.8549 210.749 122.771 210.749 122.771C210.749 122.771 311.766 75.0075 261.702 54.9977C211.638 34.9879 251.904 139.22 251.904 139.22C251.904 139.22 362.708 153.653 331.409 109.753C300.111 65.8528 277.633 175.308 277.633 175.308C277.633 175.308 363.044 247.354 360.448 193.502C357.852 139.65 279.767 219.577 279.767 219.577C279.767 219.577 312.668 326.363 339.599 279.656C366.53 232.95 257.628 257.972 257.628 257.972C257.628 257.972 227.574 365.594 275.481 340.862C323.388 316.13 218.246 278.303 218.246 278.303C218.246 278.303 134.778 352.592 188.451 357.686C242.124 362.781 174.124 274.115 174.124 274.115C174.124 274.115 63.7424 291.484 106.141 324.788C148.539 358.092 139.27 246.738 139.27 246.738C139.27 246.738 37.0209 201.673 54.6834 252.612C72.3458 303.552 124.75 204.863 124.75 204.863C124.75 204.863 63.097 111.672 50.4157 164.074Z" stroke="#FAB427" stroke-width="3.93765"/>
<path d="M202.088 174.836C217.229 174.836 229.523 187.13 229.523 202.271C229.523 217.413 217.229 229.706 202.088 229.706C186.946 229.706 174.652 217.413 174.652 202.271C174.652 187.13 186.946 174.836 202.088 174.836Z" stroke="#333333" stroke-width="11.8129"/>
</svg>
