<svg width="355" height="351" viewBox="0 0 355 351" fill="none" xmlns="http://www.w3.org/2000/svg">
<path d="M66.9921 80.7493C56.1037 65.7624 59.4318 44.7531 74.4186 33.8645C89.4054 22.9762 110.414 26.3037 121.303 41.2902C132.191 56.2771 128.864 77.2866 113.878 88.1753C98.8908 99.0639 77.8808 95.7363 66.9921 80.7493Z" fill="#FFD700" stroke="#FFD700"/>
<path d="M32.5543 163.443C14.9363 157.718 5.27976 138.765 11.0042 121.147C16.7288 103.529 35.6812 93.8723 53.2991 99.5965C70.9172 105.321 80.5746 124.274 74.8504 141.892C69.1259 159.51 50.1725 169.167 32.5543 163.443Z" fill="#FFD700" stroke="#FFD700"/>
<path d="M53.298 250.587C35.6799 256.311 16.7272 246.654 11.0028 229.035C5.27857 211.417 14.9353 192.465 32.5531 186.741C50.1712 181.016 69.1243 190.673 74.8489 208.291C80.5734 225.909 70.9162 244.862 53.298 250.587Z" fill="#FFD700" stroke="#FFD700"/>
<path d="M121.302 308.893C110.414 323.88 89.404 327.207 74.4172 316.319C59.4306 305.43 56.1031 284.421 66.9914 269.434C77.88 254.447 98.8894 251.119 113.876 262.008C128.863 272.896 132.191 293.906 121.302 308.893Z" fill="#FFD700" stroke="#FFD700"/>
<path d="M210.592 316.092C210.592 334.616 195.55 349.657 177.025 349.657C158.501 349.657 143.46 334.616 143.46 316.092C143.46 297.567 158.501 282.526 177.025 282.525C195.55 282.525 210.592 297.567 210.592 316.092Z" fill="#FFD700" stroke="#FFD700"/>
<path d="M287.061 269.432C297.949 284.419 294.621 305.429 279.634 316.317C264.647 327.205 243.638 323.878 232.75 308.891C221.861 293.905 225.188 272.895 240.175 262.006C255.162 251.118 276.172 254.445 287.061 269.432Z" fill="#FFD700" stroke="#FFD700"/>
<path d="M321.498 186.739C339.116 192.464 348.773 211.417 343.049 229.035C337.324 246.653 318.372 256.309 300.754 250.585C283.136 244.861 273.478 225.908 279.202 208.29C284.927 190.672 303.88 181.014 321.498 186.739Z" fill="#FFD700" stroke="#FFD700"/>
<path d="M176.304 140.032C193.922 134.308 212.874 143.966 218.599 161.584C224.323 179.202 214.666 198.154 197.048 203.879C179.43 209.603 160.477 199.947 154.753 182.329C149.028 164.71 158.685 145.757 176.304 140.032Z" fill="#FFD700" stroke="#FFD700"/>
<path d="M241.268 29.5637C252.157 14.577 273.166 11.2499 288.153 22.1385C303.14 33.0271 306.467 54.036 295.579 69.0228C284.69 84.0096 263.681 87.3377 248.694 76.4493C233.707 65.5606 230.379 44.5506 241.268 29.5637Z" fill="#FFD700" stroke="#FFD700"/>
<path d="M143.459 34.0645C143.459 15.5398 158.501 0.499023 177.025 0.499023C195.55 0.499242 210.591 15.5399 210.591 34.0645C210.591 52.5892 195.55 67.6306 177.025 67.6309C158.501 67.6309 143.459 52.5893 143.459 34.0645Z" fill="#FFD700" stroke="#FFD700"/>
</svg>
