<svg width="447" height="391" viewBox="0 0 447 391" fill="none" xmlns="http://www.w3.org/2000/svg">
<path d="M270.644 346.251C287.614 317.334 262.579 289.843 262.579 289.843C262.579 289.843 226.277 255.216 226.27 255.214C226.266 255.215 218.289 257.414 190.803 289.87C163.315 322.331 180.334 356.544 204.709 368.584C229.083 380.624 258.604 370.625 270.644 346.251Z" fill="#FFD700"/>
<path d="M333.084 179.261C316.526 150.107 280.201 158.042 280.201 158.042C280.201 158.042 270.775 156.161 256.208 172.204C251.396 181.964 237.114 190.219 244.336 220.215C258.704 260.25 296.843 262.618 319.458 247.529C342.072 232.44 348.173 201.875 333.084 179.261Z" fill="#FFD700"/>
<path d="M353.537 45.9791C320.01 45.741 308.72 81.1677 308.72 81.1677C308.72 81.1677 296.882 129.919 296.885 129.926C296.887 129.93 302.78 135.738 344.631 143.314C386.486 150.889 407.607 119.043 405.846 91.9137C404.086 64.7848 380.666 44.2189 353.537 45.9791Z" fill="#FFD700"/>
<path d="M177.7 75.3976C160.73 104.314 185.765 131.805 185.765 131.805C185.765 131.805 188.848 140.909 210.026 145.502C220.884 144.79 235.175 153.031 257.541 131.778C285.028 99.3179 268.01 65.1044 243.635 53.0641C219.26 41.024 189.74 51.0232 177.7 75.3976Z" fill="#FFD700"/>
<path d="M52.0472 124.329C68.6046 153.483 104.93 145.548 104.93 145.548C104.93 145.548 153.069 131.423 153.074 131.418C153.076 131.414 155.16 123.406 140.795 83.3747C126.427 43.3395 88.2879 40.9714 65.6732 56.0606C43.059 71.1494 36.9583 101.714 52.0472 124.329Z" fill="#FFD700"/>
<path d="M165.445 261.898C198.972 262.136 210.263 226.709 210.263 226.709C210.263 226.709 216.605 219.487 209.994 198.85C203.948 189.803 203.94 173.307 174.351 164.563C132.496 156.988 111.376 188.834 113.136 215.963C114.896 243.092 138.316 263.658 165.445 261.898Z" fill="#FFD700"/>
</svg>
