<svg width="161" height="50" viewBox="0 0 161 50" fill="none" xmlns="http://www.w3.org/2000/svg">
<path d="M0 24.0417V11.4842L6.66492 24.9285L6.37887 37.6576L0 24.0417Z" fill="#FAF7E8"/>
<path d="M13.8733 25.2717L3.77585 49.5H9.78285L14.4454 38.8018L13.8733 25.2717Z" fill="#FAF7E8"/>
<path d="M11.0415 14.4591V5.93491L21.711 26.9308L21.0817 35.8555L11.0415 14.4591Z" fill="#FAF7E8"/>
<path d="M4.14771 16.061V5.93491L6.89377 0.5H9.78285V4.19002L4.14771 16.061Z" fill="#FAF7E8"/>
<path d="M41.5217 34.8106C39.4508 34.8106 37.6717 34.3635 36.1845 33.4693C34.6972 32.5656 33.5582 31.3231 32.7675 29.7416C31.9768 28.1508 31.5814 26.32 31.5814 24.2491C31.5814 22.1687 31.9909 20.3238 32.8098 18.7141C33.6382 17.1045 34.796 15.8431 36.2833 14.93C37.78 14.0169 39.5355 13.5604 41.55 13.5604C43.1031 13.5604 44.388 13.7722 45.4047 14.1958C46.4213 14.61 47.3155 15.1089 48.0874 15.6925L46.972 17.4716C46.2566 16.9256 45.4611 16.4973 44.5857 16.1867C43.7103 15.8666 42.7878 15.7066 41.8182 15.7066C40.1521 15.7066 38.7495 16.0784 37.6106 16.8221C36.481 17.5563 35.6244 18.5682 35.0408 19.8578C34.4571 21.138 34.1653 22.6065 34.1653 24.2632C34.1653 25.8728 34.4336 27.313 34.9702 28.5838C35.5161 29.8452 36.3351 30.843 37.427 31.5772C38.5283 32.302 39.9168 32.6644 41.5923 32.6644C42.8725 32.6644 43.9927 32.4997 44.9528 32.1702C45.9224 31.8314 46.7649 31.3513 47.4803 30.73L48.2851 32.7068C47.4473 33.3845 46.4636 33.907 45.3341 34.2741C44.2139 34.6318 42.9431 34.8106 41.5217 34.8106ZM52.2474 34.5V24.6303C52.2474 23.8113 52.1062 23.0959 51.8239 22.4841C51.5415 21.8722 51.2355 21.2933 50.9061 20.7474L53.2358 20.0131C53.49 20.3991 53.7206 20.7897 53.9277 21.1851C54.1348 21.571 54.276 21.9899 54.3513 22.4417C54.7278 21.6793 55.2785 21.0345 56.0033 20.5073C56.7375 19.9708 57.5518 19.7025 58.446 19.7025C59.0296 19.7025 59.4721 19.7307 59.7733 19.7872C60.0839 19.8437 60.3663 19.9096 60.6205 19.9849L60.4228 22.0323C60.3004 21.9852 60.0792 21.9193 59.7592 21.8346C59.4391 21.7404 58.9779 21.6934 58.3754 21.6934C57.3494 21.6934 56.4551 22.0793 55.6927 22.8512C54.9396 23.6137 54.5631 24.8233 54.5631 26.48V34.5H52.2474ZM67.8661 34.8106C66.6895 34.8106 65.6587 34.5424 64.7739 34.0058C63.8985 33.4598 63.216 32.7021 62.7265 31.7325C62.237 30.7536 61.9923 29.6146 61.9923 28.3155C61.9923 26.5929 62.3312 25.0868 63.0089 23.7972C63.6867 22.5076 64.6327 21.5051 65.847 20.7897C67.0707 20.0649 68.4968 19.7025 70.1253 19.7025C71.076 19.7025 72.0126 19.8154 72.9351 20.0414C73.8576 20.2579 74.6012 20.5497 75.166 20.9168V30.4617C75.166 31.083 75.326 31.5866 75.6461 31.9726C75.9756 32.3491 76.4039 32.5374 76.931 32.5374L76.4509 34.5565C75.632 34.5565 74.9213 34.3353 74.3188 33.8929C73.7164 33.4504 73.3352 32.8715 73.1751 32.1561C72.6951 32.9562 71.9703 33.601 71.0007 34.0905C70.0311 34.5706 68.9863 34.8106 67.8661 34.8106ZM68.2191 32.8621C69.151 32.8621 69.9605 32.655 70.6477 32.2408C71.3443 31.8172 71.8855 31.2477 72.2715 30.5323C72.6574 29.8169 72.8504 29.0074 72.8504 28.1037V22.1876C72.5586 22.037 72.1585 21.9193 71.6502 21.8346C71.1419 21.7404 70.6195 21.6934 70.0829 21.6934C68.9439 21.6934 67.9461 21.9664 67.0895 22.5123C66.2423 23.0489 65.5787 23.8019 65.0986 24.7715C64.628 25.741 64.3926 26.8753 64.3926 28.1743C64.3926 29.5769 64.7409 30.7112 65.4375 31.5772C66.1435 32.4338 67.0707 32.8621 68.2191 32.8621ZM79.0218 40.8398L78.7253 39.1313C79.5725 38.9242 80.2126 38.4629 80.6456 37.7475C81.088 37.0321 81.3092 36.1097 81.3092 34.9801V21.5239H78.457V20.0131H81.3092V17.9799C81.3092 16.1914 81.6293 14.8924 82.2694 14.0828C82.9189 13.2733 83.9543 12.8685 85.3757 12.8685C86.1476 12.8685 86.9854 13.0238 87.889 13.3345L87.5502 14.8453C87.2866 14.7794 87.023 14.7229 86.7595 14.6759C86.4959 14.6288 86.237 14.6053 85.9829 14.6053C85.1545 14.6053 84.5521 14.85 84.1755 15.3395C83.8084 15.8196 83.6249 16.5914 83.6249 17.6551V20.0131H87.1266V21.5239H83.6249V34.6553C83.6249 36.4156 83.2766 37.8323 82.58 38.9054C81.8928 39.9785 80.7068 40.6233 79.0218 40.8398ZM95.241 34.613C93.6031 34.613 92.4124 34.2694 91.6687 33.5822C90.9251 32.8951 90.5533 31.789 90.5533 30.2641V21.5239H87.6869V20.0131H90.6239V16.1726L92.8689 15.5089V20.0131H97.6273V21.5239H92.8689V30.2923C92.8689 31.1771 93.0807 31.822 93.5043 32.2267C93.9279 32.6221 94.5962 32.8197 95.5093 32.8197C95.7258 32.8197 96.0035 32.7915 96.3424 32.735C96.6906 32.6786 97.0389 32.608 97.3872 32.5232C97.7355 32.4385 98.0179 32.3538 98.2344 32.2691L98.5027 34.0058C98.0603 34.1564 97.5049 34.2976 96.8365 34.4294C96.1776 34.5518 95.6458 34.613 95.241 34.613Z" fill="#F9F1E2"/>
<path d="M161 41.2305H101.383V7.5H161V41.2305ZM145.488 13.377V33.6523C145.488 34.057 145.605 34.3442 145.84 34.5137C146.076 34.6925 146.353 34.7495 146.673 34.6836C146.993 34.6177 147.28 34.4296 147.535 34.1191L151.841 28.0332L154.115 31.8311C154.679 32.7722 155.343 33.5018 156.105 34.0195C156.877 34.5373 157.63 34.8624 158.365 34.9941L159.622 33.2432C158.897 33.2526 158.223 33.0267 157.602 32.5654C156.981 32.1042 156.42 31.4782 155.921 30.6875L153.14 26.3105L157.193 20.7188L155.088 20.0127L147.803 30.377V12.9531L145.488 13.377ZM135.772 19.7021C134.624 19.7022 133.536 19.9566 132.51 20.4648C131.494 20.9731 130.774 21.6467 130.35 22.4844C130.284 22.0231 130.143 21.5946 129.926 21.1992C129.719 20.7945 129.489 20.3986 129.235 20.0127L126.905 20.7471C127.234 21.293 127.54 21.8725 127.823 22.4844C128.105 23.0961 128.246 23.8112 128.247 24.6299V34.5H130.562V26.5225C130.637 25.3929 130.92 24.4745 131.41 23.7686C131.908 23.0534 132.506 22.5315 133.203 22.2021C133.908 21.8633 134.6 21.6934 135.278 21.6934C136.37 21.6934 137.151 22.0797 137.622 22.8516C138.092 23.614 138.328 24.8514 138.328 26.5645V30.4902C138.328 31.6007 138.427 32.4995 138.624 33.1865C138.822 33.8643 139.189 34.3351 139.726 34.5986C140.263 34.8622 141.044 34.9192 142.07 34.7686L142.295 32.8193C141.712 32.9323 141.307 32.8995 141.081 32.7207C140.856 32.5325 140.728 32.2081 140.7 31.7471C140.671 31.2858 140.658 30.6968 140.658 29.9814V26.5225C140.658 24.1316 140.253 22.3993 139.444 21.3262C138.634 20.2437 137.41 19.7021 135.772 19.7021ZM119.611 20.0127V30.5742C119.611 31.5626 119.785 32.349 120.133 32.9326C120.482 33.5162 120.943 33.9353 121.517 34.1895C122.091 34.4435 122.712 34.5703 123.38 34.5703C123.71 34.5703 124.096 34.5238 124.539 34.4297C124.981 34.3356 125.376 34.2173 125.724 34.0762L125.442 32.5088C125.197 32.6029 124.9 32.6831 124.552 32.749C124.204 32.8055 123.922 32.834 123.705 32.834C123.226 32.834 122.812 32.6924 122.463 32.4102C122.115 32.1278 121.941 31.4923 121.941 30.5039V20.0127H119.611ZM104.624 13.9414V34.5H116.923V32.4102H107.053V13.9414H104.624ZM119.568 14.4922V17.0195H122.053V14.4922H119.568Z" fill="#FFD700"/>
</svg>
