<svg width="20" height="20" viewBox="0 0 20 20" fill="none" xmlns="http://www.w3.org/2000/svg">
<path d="M14.1665 17.0846H5.83317C3.33317 17.0846 1.6665 15.8346 1.6665 12.918V7.08464C1.6665 4.16797 3.33317 2.91797 5.83317 2.91797H14.1665C16.6665 2.91797 18.3332 4.16797 18.3332 7.08464V12.918C18.3332 15.8346 16.6665 17.0846 14.1665 17.0846Z" stroke="#9A9992" stroke-width="2" stroke-miterlimit="10" stroke-linecap="round" stroke-linejoin="round"/>
<path d="M10 12.5C11.3807 12.5 12.5 11.3807 12.5 10C12.5 8.61929 11.3807 7.5 10 7.5C8.61929 7.5 7.5 8.61929 7.5 10C7.5 11.3807 8.61929 12.5 10 12.5Z" stroke="#9A9992" stroke-width="2" stroke-miterlimit="10" stroke-linecap="round" stroke-linejoin="round"/>
<path d="M1.6665 7.4987H2.49984C4.99984 7.4987 5.83317 6.66536 5.83317 4.16536V3.33203" stroke="#9A9992" stroke-width="2" stroke-miterlimit="10" stroke-linecap="round" stroke-linejoin="round"/>
<path d="M18.3332 7.4987H17.4998C14.9998 7.4987 14.1665 6.66536 14.1665 4.16536V3.33203" stroke="#9A9992" stroke-width="2" stroke-miterlimit="10" stroke-linecap="round" stroke-linejoin="round"/>
<path d="M1.6665 12.5H2.49984C4.99984 12.5 5.83317 13.3333 5.83317 15.8333V16.6667" stroke="#9A9992" stroke-width="2" stroke-miterlimit="10" stroke-linecap="round" stroke-linejoin="round"/>
<path d="M18.3332 12.5H17.4998C14.9998 12.5 14.1665 13.3333 14.1665 15.8333V16.6667" stroke="#9A9992" stroke-width="2" stroke-miterlimit="10" stroke-linecap="round" stroke-linejoin="round"/>
</svg>
